<svg width="61" height="26" viewBox="0 0 61 26" fill="none" xmlns="http://www.w3.org/2000/svg">
<path fill-rule="evenodd" clip-rule="evenodd" d="M16.7133 6.62367C17.0752 7.14994 17.3589 7.74611 17.5644 8.41218H22.2269C22.0378 7.1705 21.6389 6.03572 21.0304 5.00784C20.4219 3.97996 19.6449 3.09187 18.6992 2.34357C17.7618 1.59527 16.6887 1.01966 15.4799 0.616729C14.2711 0.205577 12.9677 0 11.5698 0C9.91699 0 8.38751 0.29603 6.98137 0.88809C5.57523 1.47193 4.34999 2.32712 3.30566 3.45368C2.26134 4.57202 1.44726 5.93293 0.86342 7.53642C0.287807 9.13992 0 10.9613 0 13.0006C0 15.6649 0.489271 17.9674 1.46781 19.908C2.45458 21.8404 3.82372 23.3329 5.57523 24.3854C7.33496 25.4298 9.37838 25.9519 11.7055 25.9519C13.7942 25.9519 15.6443 25.5284 17.2561 24.6815C18.8678 23.8263 20.1341 22.6093 21.0551 21.0304C21.9761 19.4516 22.4366 17.5809 22.4366 15.4182V12.3839H12.1866V15.9609H18.007C17.9856 17.1193 17.7312 18.1349 17.2437 19.0076C16.7339 19.9121 16.0062 20.6111 15.0605 21.1045C14.1231 21.5978 13.013 21.8445 11.7302 21.8445C10.3158 21.8445 9.07413 21.5033 8.00514 20.8208C6.93614 20.13 6.1015 19.1227 5.50122 17.7988C4.90094 16.4749 4.60079 14.859 4.60079 12.9513C4.60079 11.06 4.90094 9.4565 5.50122 8.14082C6.10972 6.81691 6.94436 5.81369 8.00514 5.13118C9.06591 4.44867 10.2747 4.10741 11.6315 4.10741C12.388 4.10741 13.087 4.20609 13.7284 4.40344C14.3698 4.59257 14.9372 4.87627 15.4305 5.25453C15.9322 5.63279 16.3598 6.08917 16.7133 6.62367ZM27.656 25.6066V0.345369H23.1908V25.6066H27.656ZM28.7741 8.87506V25.6066H33.2392V8.87697C32.6469 9.40684 31.8649 9.72902 31.0077 9.72902C30.1494 9.72902 29.3666 9.40607 28.7741 8.87506ZM34.3573 6.66067V25.6066H38.8224V14.0861C38.8224 13.3049 38.9787 12.6224 39.2912 12.0385C39.6036 11.4465 40.023 10.9901 40.5493 10.6694C41.0756 10.3405 41.6594 10.176 42.3008 10.176C43.2464 10.176 44.0112 10.4679 44.595 11.0518C45.1871 11.6356 45.4831 12.4168 45.4831 13.3953V25.6066H49.8619V13.79C49.8619 12.7211 50.162 11.8535 50.7623 11.1875C51.3708 10.5132 52.2137 10.176 53.2909 10.176C54.1954 10.176 54.9602 10.4515 55.5851 11.0024C56.2101 11.5452 56.5226 12.4045 56.5226 13.5804V25.6066H61V12.8896C61 10.7763 60.4491 9.1687 59.3472 8.06681C58.2453 6.96492 56.8227 6.41398 55.0794 6.41398C53.7062 6.41398 52.5179 6.73057 51.5147 7.36374C50.5197 7.98869 49.8125 8.82744 49.3932 9.87999H49.1958C48.834 8.811 48.209 7.96813 47.321 7.3514C46.4411 6.72645 45.3598 6.41398 44.077 6.41398C42.8106 6.41398 41.7211 6.72234 40.8083 7.33907C39.8955 7.94758 39.2418 8.79455 38.8471 9.87999H38.6251V6.66067H34.3573Z" fill="#1F477D"/>
<circle cx="31.0077" cy="5.51268" r="2.23228" fill="#00CE15"/>
</svg>
